<svg xmlns="http://www.w3.org/2000/svg" xmlns:xlink="http://www.w3.org/1999/xlink" width="500" zoomAndPan="magnify" viewBox="0 0 375 374.999991" height="500" preserveAspectRatio="xMidYMid meet" version="1.0"><defs><clipPath id="c620c9208a"><path d="M 153.78125 171.324219 L 221.21875 171.324219 L 221.21875 238.761719 L 153.78125 238.761719 Z M 153.78125 171.324219 " clip-rule="nonzero"/></clipPath><clipPath id="ffcd315d68"><path d="M 187.5 171.324219 C 168.878906 171.324219 153.78125 186.421875 153.78125 205.042969 C 153.78125 223.664062 168.878906 238.761719 187.5 238.761719 C 206.121094 238.761719 221.21875 223.664062 221.21875 205.042969 C 221.21875 186.421875 206.121094 171.324219 187.5 171.324219 Z M 187.5 171.324219 " clip-rule="nonzero"/></clipPath><clipPath id="0bae6e3978"><path d="M 0.78125 0.324219 L 68.21875 0.324219 L 68.21875 67.761719 L 0.78125 67.761719 Z M 0.78125 0.324219 " clip-rule="nonzero"/></clipPath><clipPath id="9f5a1b9b59"><path d="M 34.5 0.324219 C 15.878906 0.324219 0.78125 15.421875 0.78125 34.042969 C 0.78125 52.664062 15.878906 67.761719 34.5 67.761719 C 53.121094 67.761719 68.21875 52.664062 68.21875 34.042969 C 68.21875 15.421875 53.121094 0.324219 34.5 0.324219 Z M 34.5 0.324219 " clip-rule="nonzero"/></clipPath><clipPath id="3c68ed53a1"><rect x="0" width="69" y="0" height="68"/></clipPath></defs><path fill="#fbbf24" d="M 106.507812 73.335938 C 106.5625 73.265625 106.632812 73.226562 106.726562 73.21875 C 106.816406 73.210938 106.894531 73.238281 106.960938 73.300781 C 112.605469 78.898438 115.648438 85.765625 117.507812 93.539062 C 117.609375 93.941406 117.863281 94.425781 118.269531 94.992188 C 118.429688 95.21875 118.632812 95.398438 118.875 95.535156 C 119.121094 95.671875 119.378906 95.75 119.65625 95.773438 C 119.9375 95.792969 120.203125 95.753906 120.464844 95.65625 C 120.726562 95.554688 120.953125 95.40625 121.148438 95.203125 C 124.636719 91.589844 127.324219 88.574219 129.207031 86.164062 C 132.324219 82.183594 134.886719 79.054688 136.898438 76.769531 C 141.683594 71.328125 147.335938 64.179688 153.851562 55.328125 C 163.375 42.382812 170.304688 26.945312 175.886719 11.175781 C 176.242188 10.171875 176.855469 9.175781 177.71875 8.195312 C 177.898438 7.988281 178.125 7.851562 178.390625 7.785156 C 178.65625 7.71875 178.921875 7.730469 179.179688 7.824219 C 180.921875 8.472656 182.464844 9.484375 183.816406 10.859375 C 188.734375 15.859375 193.578125 21.964844 198.355469 29.175781 C 207.886719 43.601562 211.8125 59.816406 211.171875 76.992188 C 211.105469 78.984375 210.476562 82.121094 209.285156 86.394531 C 208.511719 89.175781 207.328125 92.144531 205.730469 95.296875 C 202.289062 102.082031 197.476562 109.566406 191.292969 117.75 C 187.90625 122.238281 184.601562 126.082031 181.382812 129.269531 C 177.550781 133.070312 175.160156 135.519531 174.210938 136.617188 C 161.792969 151.003906 152.378906 165.597656 145.976562 180.390625 C 141.515625 190.679688 139.871094 201.996094 141.042969 214.335938 C 141.390625 217.914062 142.304688 222.445312 143.792969 227.929688 C 146.171875 236.683594 147.78125 241.699219 151.539062 249.03125 C 152.742188 251.378906 153.351562 254.195312 154.324219 256.136719 C 154.398438 256.285156 154.402344 256.4375 154.34375 256.589844 C 154.28125 256.742188 154.171875 256.847656 154.019531 256.90625 C 152.222656 257.5625 150.113281 257.746094 148.140625 257.3125 C 143.589844 256.285156 135.925781 255 129.835938 252.242188 C 123.035156 249.167969 116.316406 246.6875 110.597656 242.097656 C 103.1875 236.132812 95.835938 228.441406 88.542969 219.027344 C 78.308594 205.804688 73.414062 190.136719 72.886719 172.820312 C 72.261719 152.601562 75.863281 133.945312 83.683594 116.851562 C 87.386719 108.773438 96.753906 93.457031 101.960938 80.878906 C 103.175781 77.953125 104.8125 75.679688 106.507812 73.335938 Z M 106.507812 73.335938 " fill-opacity="1" fill-rule="nonzero"/><path fill="#fbbf24" d="M 230.71875 176.863281 C 229.710938 176.359375 228.839844 175.511719 228.097656 174.320312 C 221.921875 164.453125 214.921875 155.425781 207.101562 147.234375 C 204.726562 144.746094 202.84375 142.027344 201.457031 139.078125 C 201.300781 138.753906 201.292969 138.421875 201.425781 138.089844 C 202.582031 135.28125 204.0625 132.582031 205.871094 129.992188 C 215.789062 115.757812 223.285156 99.175781 226.441406 82.109375 C 228.503906 70.949219 227.738281 61.667969 225.953125 48.183594 C 225.730469 46.53125 225.5625 44.261719 225.453125 41.371094 C 225.441406 41.101562 225.550781 40.890625 225.78125 40.746094 C 226.011719 40.601562 226.25 40.59375 226.488281 40.726562 C 239.03125 47.609375 248.710938 56.738281 255.527344 68.109375 C 261.628906 78.300781 265.457031 89.25 267.011719 100.953125 C 268.507812 112.167969 267.109375 123.636719 262.820312 135.359375 C 259.890625 143.378906 255.980469 150.578125 251.085938 156.957031 C 245.304688 164.496094 238.800781 171.105469 231.570312 176.78125 C 231.304688 176.992188 231.019531 177.019531 230.71875 176.863281 Z M 230.71875 176.863281 " fill-opacity="1" fill-rule="nonzero"/><path fill="#f97316" d="M 104.832031 268.601562 C 106.375 268.835938 108.203125 269.359375 110.320312 270.167969 C 122.183594 274.703125 134.371094 277.664062 147.125 279.96875 C 159.617188 282.230469 172 282.347656 184.269531 280.320312 C 190.980469 279.207031 196.171875 273.324219 201.046875 268.417969 C 209.402344 260.003906 216.992188 250.851562 223.8125 240.96875 C 225.195312 238.964844 227.671875 234.65625 231.246094 228.042969 C 233.667969 223.5625 237.851562 213.570312 243.792969 198.066406 C 244.652344 195.84375 245.929688 193.644531 247.632812 191.457031 C 249.503906 189.078125 254.167969 183.949219 261.625 176.070312 C 263.878906 173.695312 267.40625 169.195312 272.203125 162.578125 C 277.058594 155.871094 280.800781 148.125 283.429688 139.339844 C 284.300781 136.4375 285.316406 132.964844 286.476562 128.917969 C 286.53125 128.726562 286.65625 128.613281 286.851562 128.582031 C 287.046875 128.550781 287.203125 128.617188 287.316406 128.78125 C 294.0625 138.375 299.003906 148.304688 300.234375 160.699219 C 301.328125 171.613281 301.492188 182.027344 300.726562 191.941406 C 300 201.402344 298.121094 211.171875 295.101562 221.238281 C 291.652344 232.746094 288.238281 242.097656 284.863281 249.296875 C 279.492188 260.742188 275.375 268.730469 272.519531 273.265625 C 266.789062 282.359375 263.917969 286.914062 263.914062 286.925781 C 261.023438 292.042969 257.84375 295.949219 254.511719 301.324219 C 252.132812 305.167969 248.847656 309.246094 246.042969 313.28125 C 242.601562 318.234375 238.453125 322.425781 234.890625 327.292969 C 233.75 328.859375 232.25 330.722656 230.394531 332.882812 C 221.070312 343.730469 214.609375 351.078125 211.003906 354.925781 C 205.851562 360.433594 198.011719 366.632812 190.71875 368.179688 C 182.753906 369.871094 171.851562 360.46875 166.769531 355.492188 C 157.226562 346.125 148.359375 336.019531 140.171875 325.175781 C 133.238281 315.988281 124.847656 304.535156 115 290.8125 C 109.691406 283.410156 106.875 277.3125 104.453125 269.039062 C 104.433594 268.980469 104.433594 268.925781 104.445312 268.867188 C 104.457031 268.8125 104.484375 268.761719 104.523438 268.714844 C 104.5625 268.671875 104.609375 268.640625 104.664062 268.621094 C 104.71875 268.601562 104.773438 268.59375 104.832031 268.601562 Z M 104.832031 268.601562 " fill-opacity="1" fill-rule="nonzero"/><g clip-path="url(#c620c9208a)"><g clip-path="url(#ffcd315d68)"><g transform="matrix(1, 0, 0, 1, 153, 171)"><g clip-path="url(#3c68ed53a1)"><g clip-path="url(#0bae6e3978)"><g clip-path="url(#9f5a1b9b59)"><path fill="#f59e0b" d="M 0.78125 0.324219 L 68.21875 0.324219 L 68.21875 67.761719 L 0.78125 67.761719 Z M 0.78125 0.324219 " fill-opacity="1" fill-rule="nonzero"/></g></g></g></g></g></g></svg>