<svg xmlns="http://www.w3.org/2000/svg" xmlns:xlink="http://www.w3.org/1999/xlink" width="1700" zoomAndPan="magnify" viewBox="0 0 1275 299.999988" height="400" preserveAspectRatio="xMidYMid meet" version="1.0"><defs><g/><clipPath id="9f63c72f19"><path d="M 56.691406 139.609375 L 100.011719 139.609375 L 100.011719 182.933594 L 56.691406 182.933594 Z M 56.691406 139.609375 " clip-rule="nonzero"/></clipPath><clipPath id="9fb4a46fa1"><path d="M 78.351562 139.609375 C 66.386719 139.609375 56.691406 149.304688 56.691406 161.269531 C 56.691406 173.234375 66.386719 182.933594 78.351562 182.933594 C 90.316406 182.933594 100.011719 173.234375 100.011719 161.269531 C 100.011719 149.304688 90.316406 139.609375 78.351562 139.609375 Z M 78.351562 139.609375 " clip-rule="nonzero"/></clipPath><clipPath id="e7cbf03d04"><path d="M 0.691406 0.609375 L 44.011719 0.609375 L 44.011719 43.933594 L 0.691406 43.933594 Z M 0.691406 0.609375 " clip-rule="nonzero"/></clipPath><clipPath id="1c1de51f4a"><path d="M 22.351562 0.609375 C 10.386719 0.609375 0.691406 10.304688 0.691406 22.269531 C 0.691406 34.234375 10.386719 43.933594 22.351562 43.933594 C 34.316406 43.933594 44.011719 34.234375 44.011719 22.269531 C 44.011719 10.304688 34.316406 0.609375 22.351562 0.609375 Z M 22.351562 0.609375 " clip-rule="nonzero"/></clipPath><clipPath id="3b07152d88"><rect x="0" width="45" y="0" height="44"/></clipPath></defs><g fill="#ffffff" fill-opacity="1"><g transform="translate(189.010131, 217.95028)"><g><path d="M 61.671875 2.40625 C 51.359375 2.40625 42.25 0.632812 34.34375 -2.90625 C 26.445312 -6.457031 20.222656 -11.546875 15.671875 -18.171875 C 11.117188 -24.804688 8.773438 -32.878906 8.640625 -42.390625 L 35.765625 -42.390625 C 36.023438 -35.828125 38.398438 -30.300781 42.890625 -25.8125 C 47.378906 -21.332031 53.578125 -19.09375 61.484375 -19.09375 C 68.304688 -19.09375 73.726562 -20.734375 77.75 -24.015625 C 81.769531 -27.296875 83.78125 -31.679688 83.78125 -37.171875 C 83.78125 -42.929688 82.003906 -47.414062 78.453125 -50.625 C 74.898438 -53.84375 70.175781 -56.457031 64.28125 -58.46875 C 58.394531 -60.476562 52.101562 -62.617188 45.40625 -64.890625 C 34.550781 -68.640625 26.273438 -73.460938 20.578125 -79.359375 C 14.890625 -85.253906 12.046875 -93.085938 12.046875 -102.859375 C 11.921875 -111.160156 13.898438 -118.289062 17.984375 -124.25 C 22.066406 -130.21875 27.65625 -134.84375 34.75 -138.125 C 41.851562 -141.40625 50.023438 -143.046875 59.265625 -143.046875 C 68.640625 -143.046875 76.910156 -141.367188 84.078125 -138.015625 C 91.242188 -134.671875 96.867188 -129.984375 100.953125 -123.953125 C 105.035156 -117.929688 107.210938 -110.769531 107.484375 -102.46875 L 79.953125 -102.46875 C 79.828125 -107.414062 77.921875 -111.796875 74.234375 -115.609375 C 70.546875 -119.429688 65.421875 -121.34375 58.859375 -121.34375 C 53.234375 -121.476562 48.507812 -120.101562 44.6875 -117.21875 C 40.875 -114.34375 38.96875 -110.160156 38.96875 -104.671875 C 38.96875 -99.984375 40.441406 -96.265625 43.390625 -93.515625 C 46.335938 -90.773438 50.351562 -88.46875 55.4375 -86.59375 C 60.53125 -84.71875 66.359375 -82.707031 72.921875 -80.5625 C 79.890625 -78.15625 86.253906 -75.34375 92.015625 -72.125 C 97.773438 -68.90625 102.394531 -64.648438 105.875 -59.359375 C 109.351562 -54.078125 111.09375 -47.28125 111.09375 -38.96875 C 111.09375 -31.601562 109.21875 -24.773438 105.46875 -18.484375 C 101.71875 -12.191406 96.160156 -7.132812 88.796875 -3.3125 C 81.429688 0.5 72.390625 2.40625 61.671875 2.40625 Z M 61.671875 2.40625 "/></g></g></g><g fill="#ffffff" fill-opacity="1"><g transform="translate(308.948701, 217.95028)"><g><path d="M 13.0625 44.203125 L 13.0625 -99.65625 L 35.96875 -99.65625 L 38.78125 -85.390625 C 41.988281 -89.804688 46.238281 -93.6875 51.53125 -97.03125 C 56.820312 -100.382812 63.6875 -102.0625 72.125 -102.0625 C 81.5 -102.0625 89.867188 -99.785156 97.234375 -95.234375 C 104.597656 -90.679688 110.421875 -84.453125 114.703125 -76.546875 C 118.992188 -68.640625 121.140625 -59.664062 121.140625 -49.625 C 121.140625 -39.582031 118.992188 -30.640625 114.703125 -22.796875 C 110.421875 -14.960938 104.597656 -8.800781 97.234375 -4.3125 C 89.867188 0.164062 81.5 2.40625 72.125 2.40625 C 64.625 2.40625 58.0625 1 52.4375 -1.8125 C 46.8125 -4.625 42.257812 -8.570312 38.78125 -13.65625 L 38.78125 44.203125 Z M 66.703125 -20.09375 C 74.867188 -20.09375 81.628906 -22.835938 86.984375 -28.328125 C 92.347656 -33.816406 95.03125 -40.914062 95.03125 -49.625 C 95.03125 -58.332031 92.347656 -65.5 86.984375 -71.125 C 81.628906 -76.75 74.867188 -79.5625 66.703125 -79.5625 C 58.398438 -79.5625 51.601562 -76.78125 46.3125 -71.21875 C 41.019531 -65.664062 38.375 -58.535156 38.375 -49.828125 C 38.375 -41.117188 41.019531 -33.984375 46.3125 -28.421875 C 51.601562 -22.867188 58.398438 -20.09375 66.703125 -20.09375 Z M 66.703125 -20.09375 "/></g></g></g><g fill="#ffffff" fill-opacity="1"><g transform="translate(439.936933, 217.95028)"><g><path d="M 47.40625 2.40625 C 38.84375 2.40625 31.8125 1.035156 26.3125 -1.703125 C 20.820312 -4.453125 16.738281 -8.101562 14.0625 -12.65625 C 11.382812 -17.207031 10.046875 -22.226562 10.046875 -27.71875 C 10.046875 -36.96875 13.660156 -44.46875 20.890625 -50.21875 C 28.128906 -55.976562 38.976562 -58.859375 53.4375 -58.859375 L 78.75 -58.859375 L 78.75 -61.28125 C 78.75 -68.101562 76.804688 -73.125 72.921875 -76.34375 C 69.046875 -79.5625 64.226562 -81.171875 58.46875 -81.171875 C 53.238281 -81.171875 48.679688 -79.929688 44.796875 -77.453125 C 40.910156 -74.972656 38.5 -71.320312 37.5625 -66.5 L 12.453125 -66.5 C 13.117188 -73.726562 15.5625 -80.019531 19.78125 -85.375 C 24.007812 -90.738281 29.46875 -94.859375 36.15625 -97.734375 C 42.851562 -100.617188 50.359375 -102.0625 58.671875 -102.0625 C 72.859375 -102.0625 84.035156 -98.507812 92.203125 -91.40625 C 100.378906 -84.3125 104.46875 -74.269531 104.46875 -61.28125 L 104.46875 0 L 82.578125 0 L 80.15625 -16.078125 C 77.207031 -10.710938 73.085938 -6.289062 67.796875 -2.8125 C 62.515625 0.664062 55.71875 2.40625 47.40625 2.40625 Z M 53.234375 -17.6875 C 60.609375 -17.6875 66.335938 -20.09375 70.421875 -24.90625 C 74.503906 -29.726562 77.082031 -35.691406 78.15625 -42.796875 L 56.25 -42.796875 C 49.414062 -42.796875 44.523438 -41.554688 41.578125 -39.078125 C 38.640625 -36.597656 37.171875 -33.550781 37.171875 -29.9375 C 37.171875 -26.050781 38.640625 -23.035156 41.578125 -20.890625 C 44.523438 -18.753906 48.410156 -17.6875 53.234375 -17.6875 Z M 53.234375 -17.6875 "/></g></g></g><g fill="#ffffff" fill-opacity="1"><g transform="translate(555.857425, 217.95028)"><g><path d="M 13.0625 0 L 13.0625 -99.65625 L 35.96875 -99.65625 L 38.375 -80.96875 C 41.988281 -87.394531 46.910156 -92.515625 53.140625 -96.328125 C 59.367188 -100.148438 66.703125 -102.0625 75.140625 -102.0625 L 75.140625 -74.9375 L 67.90625 -74.9375 C 62.28125 -74.9375 57.253906 -74.066406 52.828125 -72.328125 C 48.410156 -70.585938 44.960938 -67.570312 42.484375 -63.28125 C 40.015625 -59 38.78125 -53.039062 38.78125 -45.40625 L 38.78125 0 Z M 13.0625 0 "/></g></g></g><g fill="#ffffff" fill-opacity="1"><g transform="translate(635.414685, 217.95028)"><g><path d="M 13.0625 0 L 13.0625 -144.65625 L 38.78125 -144.65625 L 38.78125 -59.265625 L 74.140625 -99.65625 L 104.671875 -99.65625 L 63.890625 -54.25 L 111.296875 0 L 79.15625 0 L 38.78125 -50.03125 L 38.78125 0 Z M 13.0625 0 "/></g></g></g><g fill="#f59e0b" fill-opacity="1"><g transform="translate(749.52962, 217.95028)"><g><path d="M 13.65625 0 L 13.65625 -140.640625 L 39.375 -140.640625 L 39.375 -20.09375 L 101.65625 -20.09375 L 101.65625 0 Z M 13.65625 0 "/></g></g></g><g fill="#f59e0b" fill-opacity="1"><g transform="translate(855.806864, 217.95028)"><g><path d="M 60.875 2.40625 C 51.226562 2.40625 42.554688 0.195312 34.859375 -4.21875 C 27.160156 -8.632812 21.066406 -14.757812 16.578125 -22.59375 C 12.085938 -30.4375 9.84375 -39.515625 9.84375 -49.828125 C 9.84375 -60.140625 12.117188 -69.210938 16.671875 -77.046875 C 21.222656 -84.878906 27.347656 -91.003906 35.046875 -95.421875 C 42.753906 -99.847656 51.429688 -102.0625 61.078125 -102.0625 C 70.585938 -102.0625 79.191406 -99.847656 86.890625 -95.421875 C 94.585938 -91.003906 100.679688 -84.878906 105.171875 -77.046875 C 109.660156 -69.210938 111.90625 -60.140625 111.90625 -49.828125 C 111.90625 -39.515625 109.660156 -30.4375 105.171875 -22.59375 C 100.679688 -14.757812 94.550781 -8.632812 86.78125 -4.21875 C 79.019531 0.195312 70.382812 2.40625 60.875 2.40625 Z M 60.875 -19.890625 C 67.570312 -19.890625 73.394531 -22.398438 78.34375 -27.421875 C 83.300781 -32.441406 85.78125 -39.910156 85.78125 -49.828125 C 85.78125 -59.734375 83.300781 -67.195312 78.34375 -72.21875 C 73.394531 -77.25 67.640625 -79.765625 61.078125 -79.765625 C 54.242188 -79.765625 48.378906 -77.25 43.484375 -72.21875 C 38.597656 -67.195312 36.15625 -59.734375 36.15625 -49.828125 C 36.15625 -39.910156 38.597656 -32.441406 43.484375 -27.421875 C 48.378906 -22.398438 54.175781 -19.890625 60.875 -19.890625 Z M 60.875 -19.890625 "/></g></g></g><g fill="#f59e0b" fill-opacity="1"><g transform="translate(977.553566, 217.95028)"><g><path d="M 61.875 2.40625 C 51.695312 2.40625 42.722656 0.195312 34.953125 -4.21875 C 27.191406 -8.632812 21.066406 -14.796875 16.578125 -22.703125 C 12.085938 -30.609375 9.84375 -39.648438 9.84375 -49.828125 C 9.84375 -60.003906 12.085938 -69.039062 16.578125 -76.9375 C 21.066406 -84.84375 27.191406 -91.003906 34.953125 -95.421875 C 42.722656 -99.847656 51.695312 -102.0625 61.875 -102.0625 C 74.601562 -102.0625 85.316406 -98.742188 94.015625 -92.109375 C 102.722656 -85.484375 108.285156 -76.34375 110.703125 -64.6875 L 83.578125 -64.6875 C 82.234375 -69.507812 79.585938 -73.289062 75.640625 -76.03125 C 71.691406 -78.78125 67.035156 -80.15625 61.671875 -80.15625 C 54.578125 -80.15625 48.550781 -77.476562 43.59375 -72.125 C 38.632812 -66.769531 36.15625 -59.335938 36.15625 -49.828125 C 36.15625 -40.316406 38.632812 -32.878906 43.59375 -27.515625 C 48.550781 -22.160156 54.578125 -19.484375 61.671875 -19.484375 C 67.035156 -19.484375 71.691406 -20.820312 75.640625 -23.5 C 79.585938 -26.1875 82.234375 -30.003906 83.578125 -34.953125 L 110.703125 -34.953125 C 108.285156 -23.703125 102.722656 -14.660156 94.015625 -7.828125 C 85.316406 -1.003906 74.601562 2.40625 61.875 2.40625 Z M 61.875 2.40625 "/></g></g></g><g fill="#f59e0b" fill-opacity="1"><g transform="translate(1098.094838, 217.95028)"><g><path d="M 47.40625 2.40625 C 38.84375 2.40625 31.8125 1.035156 26.3125 -1.703125 C 20.820312 -4.453125 16.738281 -8.101562 14.0625 -12.65625 C 11.382812 -17.207031 10.046875 -22.226562 10.046875 -27.71875 C 10.046875 -36.96875 13.660156 -44.46875 20.890625 -50.21875 C 28.128906 -55.976562 38.976562 -58.859375 53.4375 -58.859375 L 78.75 -58.859375 L 78.75 -61.28125 C 78.75 -68.101562 76.804688 -73.125 72.921875 -76.34375 C 69.046875 -79.5625 64.226562 -81.171875 58.46875 -81.171875 C 53.238281 -81.171875 48.679688 -79.929688 44.796875 -77.453125 C 40.910156 -74.972656 38.5 -71.320312 37.5625 -66.5 L 12.453125 -66.5 C 13.117188 -73.726562 15.5625 -80.019531 19.78125 -85.375 C 24.007812 -90.738281 29.46875 -94.859375 36.15625 -97.734375 C 42.851562 -100.617188 50.359375 -102.0625 58.671875 -102.0625 C 72.859375 -102.0625 84.035156 -98.507812 92.203125 -91.40625 C 100.378906 -84.3125 104.46875 -74.269531 104.46875 -61.28125 L 104.46875 0 L 82.578125 0 L 80.15625 -16.078125 C 77.207031 -10.710938 73.085938 -6.289062 67.796875 -2.8125 C 62.515625 0.664062 55.71875 2.40625 47.40625 2.40625 Z M 53.234375 -17.6875 C 60.609375 -17.6875 66.335938 -20.09375 70.421875 -24.90625 C 74.503906 -29.726562 77.082031 -35.691406 78.15625 -42.796875 L 56.25 -42.796875 C 49.414062 -42.796875 44.523438 -41.554688 41.578125 -39.078125 C 38.640625 -36.597656 37.171875 -33.550781 37.171875 -29.9375 C 37.171875 -26.050781 38.640625 -23.035156 41.578125 -20.890625 C 44.523438 -18.753906 48.410156 -17.6875 53.234375 -17.6875 Z M 53.234375 -17.6875 "/></g></g></g><g fill="#f59e0b" fill-opacity="1"><g transform="translate(1214.015331, 217.95028)"><g><path d="M 13.0625 0 L 13.0625 -144.65625 L 38.78125 -144.65625 L 38.78125 0 Z M 13.0625 0 "/></g></g></g><path fill="#fbbf24" d="M 26.316406 76.65625 C 26.351562 76.609375 26.398438 76.582031 26.457031 76.578125 C 26.515625 76.574219 26.566406 76.59375 26.609375 76.632812 C 30.234375 80.230469 32.191406 84.640625 33.386719 89.636719 C 33.449219 89.890625 33.613281 90.203125 33.875 90.566406 C 33.976562 90.714844 34.109375 90.832031 34.265625 90.917969 C 34.421875 91.007812 34.585938 91.054688 34.765625 91.070312 C 34.945312 91.082031 35.117188 91.058594 35.285156 90.992188 C 35.453125 90.929688 35.597656 90.832031 35.722656 90.703125 C 37.964844 88.382812 39.691406 86.445312 40.902344 84.894531 C 42.902344 82.339844 44.550781 80.328125 45.84375 78.863281 C 48.917969 75.367188 52.546875 70.773438 56.734375 65.085938 C 62.851562 56.769531 67.304688 46.851562 70.890625 36.722656 C 71.121094 36.074219 71.511719 35.4375 72.066406 34.804688 C 72.183594 34.675781 72.328125 34.585938 72.5 34.542969 C 72.671875 34.5 72.839844 34.507812 73.007812 34.570312 C 74.125 34.984375 75.117188 35.636719 75.984375 36.519531 C 79.144531 39.730469 82.257812 43.652344 85.324219 48.285156 C 91.449219 57.554688 93.96875 67.96875 93.558594 79.003906 C 93.515625 80.285156 93.113281 82.296875 92.347656 85.046875 C 91.851562 86.832031 91.089844 88.738281 90.0625 90.765625 C 87.851562 95.125 84.761719 99.933594 80.789062 105.1875 C 78.613281 108.074219 76.492188 110.539062 74.421875 112.589844 C 71.960938 115.03125 70.425781 116.605469 69.8125 117.3125 C 61.835938 126.554688 55.789062 135.925781 51.675781 145.433594 C 48.808594 152.042969 47.753906 159.3125 48.503906 167.238281 C 48.726562 169.539062 49.316406 172.449219 50.269531 175.972656 C 51.800781 181.597656 52.832031 184.820312 55.246094 189.527344 C 56.019531 191.039062 56.414062 192.847656 57.035156 194.09375 C 57.085938 194.191406 57.089844 194.289062 57.050781 194.386719 C 57.011719 194.484375 56.941406 194.550781 56.839844 194.589844 C 55.6875 195.011719 54.332031 195.128906 53.066406 194.851562 C 50.140625 194.191406 45.21875 193.363281 41.304688 191.59375 C 36.9375 189.617188 32.621094 188.023438 28.945312 185.078125 C 24.183594 181.242188 19.460938 176.304688 14.777344 170.253906 C 8.203125 161.757812 5.054688 151.691406 4.71875 140.570312 C 4.316406 127.582031 6.628906 115.59375 11.65625 104.609375 C 14.035156 99.421875 20.050781 89.582031 23.398438 81.5 C 24.175781 79.621094 25.230469 78.160156 26.316406 76.65625 Z M 26.316406 76.65625 " fill-opacity="1" fill-rule="nonzero"/><path fill="#fbbf24" d="M 106.117188 143.167969 C 105.46875 142.84375 104.910156 142.296875 104.433594 141.53125 C 100.464844 135.195312 95.96875 129.394531 90.945312 124.128906 C 89.417969 122.53125 88.207031 120.785156 87.316406 118.890625 C 87.21875 118.683594 87.210938 118.46875 87.300781 118.257812 C 88.039062 116.453125 88.992188 114.71875 90.152344 113.054688 C 96.527344 103.910156 101.34375 93.253906 103.371094 82.292969 C 104.695312 75.121094 104.203125 69.160156 103.054688 60.496094 C 102.910156 59.433594 102.804688 57.976562 102.734375 56.121094 C 102.726562 55.945312 102.796875 55.8125 102.945312 55.71875 C 103.09375 55.625 103.246094 55.621094 103.398438 55.703125 C 111.457031 60.128906 117.675781 65.992188 122.054688 73.296875 C 125.976562 79.84375 128.433594 86.878906 129.433594 94.398438 C 130.394531 101.601562 129.496094 108.972656 126.742188 116.503906 C 124.859375 121.65625 122.34375 126.28125 119.203125 130.378906 C 115.488281 135.222656 111.308594 139.46875 106.664062 143.113281 C 106.492188 143.25 106.3125 143.265625 106.117188 143.167969 Z M 106.117188 143.167969 " fill-opacity="1" fill-rule="nonzero"/><path fill="#f97316" d="M 25.242188 202.105469 C 26.230469 202.253906 27.40625 202.589844 28.765625 203.109375 C 36.390625 206.023438 44.21875 207.925781 52.410156 209.40625 C 60.4375 210.859375 68.394531 210.933594 76.277344 209.628906 C 80.585938 208.917969 83.921875 205.136719 87.054688 201.984375 C 92.421875 196.578125 97.296875 190.699219 101.679688 184.351562 C 102.570312 183.0625 104.160156 180.292969 106.457031 176.046875 C 108.011719 173.167969 110.699219 166.75 114.515625 156.789062 C 115.066406 155.359375 115.890625 153.945312 116.984375 152.542969 C 118.183594 151.011719 121.183594 147.71875 125.972656 142.65625 C 127.421875 141.128906 129.6875 138.242188 132.769531 133.988281 C 135.890625 129.679688 138.292969 124.703125 139.980469 119.058594 C 140.539062 117.195312 141.191406 114.964844 141.9375 112.363281 C 141.972656 112.242188 142.054688 112.167969 142.179688 112.148438 C 142.304688 112.128906 142.40625 112.167969 142.476562 112.273438 C 146.8125 118.441406 149.988281 124.820312 150.777344 132.78125 C 151.480469 139.792969 151.585938 146.484375 151.09375 152.851562 C 150.625 158.933594 149.421875 165.207031 147.476562 171.675781 C 145.261719 179.066406 143.070312 185.078125 140.902344 189.703125 C 137.449219 197.054688 134.808594 202.1875 132.972656 205.101562 C 129.289062 210.941406 127.445312 213.867188 127.441406 213.875 C 125.585938 217.164062 123.542969 219.671875 121.402344 223.125 C 119.875 225.59375 117.761719 228.214844 115.960938 230.808594 C 113.75 233.988281 111.085938 236.683594 108.796875 239.808594 C 108.0625 240.816406 107.101562 242.011719 105.90625 243.402344 C 99.917969 250.367188 95.765625 255.089844 93.453125 257.5625 C 90.140625 261.101562 85.105469 265.082031 80.421875 266.078125 C 75.300781 267.164062 68.296875 261.125 65.035156 257.925781 C 58.902344 251.910156 53.207031 245.414062 47.945312 238.449219 C 43.492188 232.546875 38.101562 225.1875 31.773438 216.371094 C 28.363281 211.617188 26.554688 207.699219 24.996094 202.382812 C 24.976562 202.304688 24.988281 202.238281 25.042969 202.175781 C 25.09375 202.117188 25.160156 202.09375 25.242188 202.105469 Z M 25.242188 202.105469 " fill-opacity="1" fill-rule="nonzero"/><g clip-path="url(#9f63c72f19)"><g clip-path="url(#9fb4a46fa1)"><g transform="matrix(1, 0, 0, 1, 56, 139)"><g clip-path="url(#3b07152d88)"><g clip-path="url(#e7cbf03d04)"><g clip-path="url(#1c1de51f4a)"><path fill="#f59e0b" d="M 0.691406 0.609375 L 44.011719 0.609375 L 44.011719 43.933594 L 0.691406 43.933594 Z M 0.691406 0.609375 " fill-opacity="1" fill-rule="nonzero"/></g></g></g></g></g></g></svg>