<svg xmlns="http://www.w3.org/2000/svg" xmlns:xlink="http://www.w3.org/1999/xlink" width="1500" zoomAndPan="magnify" viewBox="0 0 1125 374.999991" height="500" preserveAspectRatio="xMidYMid meet" version="1.0"><defs><g/><clipPath id="e5d0314b69"><path d="M 64.597656 175.660156 L 113.964844 175.660156 L 113.964844 225.027344 L 64.597656 225.027344 Z M 64.597656 175.660156 " clip-rule="nonzero"/></clipPath><clipPath id="94f829741f"><path d="M 89.28125 175.660156 C 75.648438 175.660156 64.597656 186.710938 64.597656 200.34375 C 64.597656 213.976562 75.648438 225.027344 89.28125 225.027344 C 102.914062 225.027344 113.964844 213.976562 113.964844 200.34375 C 113.964844 186.710938 102.914062 175.660156 89.28125 175.660156 Z M 89.28125 175.660156 " clip-rule="nonzero"/></clipPath><clipPath id="725eddd2cc"><path d="M 0.597656 0.660156 L 49.964844 0.660156 L 49.964844 50.027344 L 0.597656 50.027344 Z M 0.597656 0.660156 " clip-rule="nonzero"/></clipPath><clipPath id="fff8f38f3e"><path d="M 25.28125 0.660156 C 11.648438 0.660156 0.597656 11.710938 0.597656 25.34375 C 0.597656 38.976562 11.648438 50.027344 25.28125 50.027344 C 38.914062 50.027344 49.964844 38.976562 49.964844 25.34375 C 49.964844 11.710938 38.914062 0.660156 25.28125 0.660156 Z M 25.28125 0.660156 " clip-rule="nonzero"/></clipPath><clipPath id="831365e2bc"><rect x="0" width="50" y="0" height="51"/></clipPath></defs><g fill="#ffffff" fill-opacity="1"><g transform="translate(213.898404, 280.773416)"><g><path d="M 51.6875 2.015625 C 43.039062 2.015625 35.40625 0.53125 28.78125 -2.4375 C 22.164062 -5.414062 16.945312 -9.679688 13.125 -15.234375 C 9.3125 -20.796875 7.347656 -27.5625 7.234375 -35.53125 L 29.96875 -35.53125 C 30.195312 -30.03125 32.191406 -25.398438 35.953125 -21.640625 C 39.710938 -17.878906 44.898438 -16 51.515625 -16 C 57.242188 -16 61.789062 -17.375 65.15625 -20.125 C 68.53125 -22.875 70.21875 -26.550781 70.21875 -31.15625 C 70.21875 -35.976562 68.726562 -39.734375 65.75 -42.421875 C 62.769531 -45.117188 58.8125 -47.304688 53.875 -48.984375 C 48.9375 -50.671875 43.660156 -52.472656 38.046875 -54.390625 C 28.960938 -57.523438 22.035156 -61.5625 17.265625 -66.5 C 12.492188 -71.445312 10.109375 -78.015625 10.109375 -86.203125 C 9.992188 -93.160156 11.644531 -99.132812 15.0625 -104.125 C 18.488281 -109.125 23.175781 -113 29.125 -115.75 C 35.070312 -118.507812 41.921875 -119.890625 49.671875 -119.890625 C 57.523438 -119.890625 64.453125 -118.484375 70.453125 -115.671875 C 76.460938 -112.867188 81.179688 -108.941406 84.609375 -103.890625 C 88.035156 -98.835938 89.859375 -92.832031 90.078125 -85.875 L 67.015625 -85.875 C 66.898438 -90.019531 65.296875 -93.691406 62.203125 -96.890625 C 59.117188 -100.097656 54.828125 -101.703125 49.328125 -101.703125 C 44.617188 -101.804688 40.664062 -100.648438 37.46875 -98.234375 C 34.269531 -95.828125 32.671875 -92.320312 32.671875 -87.71875 C 32.671875 -83.789062 33.90625 -80.675781 36.375 -78.375 C 38.84375 -76.070312 42.207031 -74.132812 46.46875 -72.5625 C 50.738281 -71 55.625 -69.316406 61.125 -67.515625 C 66.957031 -65.492188 72.285156 -63.132812 77.109375 -60.4375 C 81.941406 -57.75 85.816406 -54.1875 88.734375 -49.75 C 91.648438 -45.320312 93.109375 -39.628906 93.109375 -32.671875 C 93.109375 -26.492188 91.535156 -20.765625 88.390625 -15.484375 C 85.253906 -10.210938 80.597656 -5.976562 74.421875 -2.78125 C 68.242188 0.414062 60.664062 2.015625 51.6875 2.015625 Z M 51.6875 2.015625 "/></g></g></g><g fill="#ffffff" fill-opacity="1"><g transform="translate(314.411306, 280.773416)"><g><path d="M 10.9375 37.046875 L 10.9375 -83.515625 L 30.140625 -83.515625 L 32.5 -71.5625 C 35.1875 -75.257812 38.75 -78.507812 43.1875 -81.3125 C 47.625 -84.125 53.378906 -85.53125 60.453125 -85.53125 C 68.304688 -85.53125 75.316406 -83.617188 81.484375 -79.796875 C 87.660156 -75.984375 92.546875 -70.765625 96.140625 -64.140625 C 99.734375 -57.523438 101.53125 -50.007812 101.53125 -41.59375 C 101.53125 -33.164062 99.734375 -25.671875 96.140625 -19.109375 C 92.546875 -12.546875 87.660156 -7.382812 81.484375 -3.625 C 75.316406 0.132812 68.304688 2.015625 60.453125 2.015625 C 54.160156 2.015625 48.65625 0.835938 43.9375 -1.515625 C 39.226562 -3.867188 35.414062 -7.179688 32.5 -11.453125 L 32.5 37.046875 Z M 55.90625 -16.84375 C 62.75 -16.84375 68.414062 -19.140625 72.90625 -23.734375 C 77.394531 -28.335938 79.640625 -34.289062 79.640625 -41.59375 C 79.640625 -48.882812 77.394531 -54.882812 72.90625 -59.59375 C 68.414062 -64.3125 62.75 -66.671875 55.90625 -66.671875 C 48.945312 -66.671875 43.25 -64.34375 38.8125 -59.6875 C 34.375 -55.03125 32.15625 -49.050781 32.15625 -41.75 C 32.15625 -34.457031 34.375 -28.484375 38.8125 -23.828125 C 43.25 -19.171875 48.945312 -16.84375 55.90625 -16.84375 Z M 55.90625 -16.84375 "/></g></g></g><g fill="#ffffff" fill-opacity="1"><g transform="translate(424.184195, 280.773416)"><g><path d="M 39.734375 2.015625 C 32.546875 2.015625 26.648438 0.863281 22.046875 -1.4375 C 17.453125 -3.738281 14.03125 -6.796875 11.78125 -10.609375 C 9.539062 -14.421875 8.421875 -18.628906 8.421875 -23.234375 C 8.421875 -30.984375 11.453125 -37.269531 17.515625 -42.09375 C 23.578125 -46.914062 32.664062 -49.328125 44.78125 -49.328125 L 66 -49.328125 L 66 -51.359375 C 66 -57.078125 64.367188 -61.285156 61.109375 -63.984375 C 57.859375 -66.679688 53.820312 -68.03125 49 -68.03125 C 44.625 -68.03125 40.804688 -66.988281 37.546875 -64.90625 C 34.296875 -62.832031 32.273438 -59.773438 31.484375 -55.734375 L 10.4375 -55.734375 C 11 -61.796875 13.046875 -67.070312 16.578125 -71.5625 C 20.117188 -76.050781 24.691406 -79.5 30.296875 -81.90625 C 35.910156 -84.320312 42.203125 -85.53125 49.171875 -85.53125 C 61.066406 -85.53125 70.4375 -82.554688 77.28125 -76.609375 C 84.132812 -70.660156 87.5625 -62.242188 87.5625 -51.359375 L 87.5625 0 L 69.203125 0 L 67.1875 -13.46875 C 64.71875 -8.976562 61.265625 -5.273438 56.828125 -2.359375 C 52.390625 0.554688 46.691406 2.015625 39.734375 2.015625 Z M 44.625 -14.8125 C 50.789062 -14.8125 55.585938 -16.832031 59.015625 -20.875 C 62.441406 -24.914062 64.601562 -29.910156 65.5 -35.859375 L 47.140625 -35.859375 C 41.421875 -35.859375 37.328125 -34.820312 34.859375 -32.75 C 32.390625 -30.675781 31.15625 -28.125 31.15625 -25.09375 C 31.15625 -21.832031 32.390625 -19.300781 34.859375 -17.5 C 37.328125 -15.707031 40.582031 -14.8125 44.625 -14.8125 Z M 44.625 -14.8125 "/></g></g></g><g fill="#ffffff" fill-opacity="1"><g transform="translate(521.329833, 280.773416)"><g><path d="M 10.9375 0 L 10.9375 -83.515625 L 30.140625 -83.515625 L 32.15625 -67.859375 C 35.1875 -73.242188 39.3125 -77.535156 44.53125 -80.734375 C 49.75 -83.929688 55.894531 -85.53125 62.96875 -85.53125 L 62.96875 -62.796875 L 56.90625 -62.796875 C 52.195312 -62.796875 47.988281 -62.066406 44.28125 -60.609375 C 40.570312 -59.148438 37.679688 -56.625 35.609375 -53.03125 C 33.535156 -49.445312 32.5 -44.453125 32.5 -38.046875 L 32.5 0 Z M 10.9375 0 "/></g></g></g><g fill="#ffffff" fill-opacity="1"><g transform="translate(588.001712, 280.773416)"><g><path d="M 10.9375 0 L 10.9375 -121.234375 L 32.5 -121.234375 L 32.5 -49.671875 L 62.125 -83.515625 L 87.71875 -83.515625 L 53.546875 -45.46875 L 93.28125 0 L 66.34375 0 L 32.5 -41.921875 L 32.5 0 Z M 10.9375 0 "/></g></g></g><g fill="#f59e0b" fill-opacity="1"><g transform="translate(683.632752, 280.773416)"><g><path d="M 11.453125 0 L 11.453125 -117.859375 L 33 -117.859375 L 33 -16.84375 L 85.203125 -16.84375 L 85.203125 0 Z M 11.453125 0 "/></g></g></g><g fill="#f59e0b" fill-opacity="1"><g transform="translate(772.696859, 280.773416)"><g><path d="M 51.015625 2.015625 C 42.929688 2.015625 35.660156 0.164062 29.203125 -3.53125 C 22.753906 -7.238281 17.648438 -12.375 13.890625 -18.9375 C 10.128906 -25.507812 8.25 -33.113281 8.25 -41.75 C 8.25 -50.394531 10.15625 -58 13.96875 -64.5625 C 17.789062 -71.132812 22.925781 -76.269531 29.375 -79.96875 C 35.832031 -83.675781 43.101562 -85.53125 51.1875 -85.53125 C 59.15625 -85.53125 66.363281 -83.675781 72.8125 -79.96875 C 79.269531 -76.269531 84.378906 -71.132812 88.140625 -64.5625 C 91.898438 -58 93.78125 -50.394531 93.78125 -41.75 C 93.78125 -33.113281 91.898438 -25.507812 88.140625 -18.9375 C 84.378906 -12.375 79.242188 -7.238281 72.734375 -3.53125 C 66.222656 0.164062 58.984375 2.015625 51.015625 2.015625 Z M 51.015625 -16.671875 C 56.628906 -16.671875 61.507812 -18.773438 65.65625 -22.984375 C 69.8125 -27.191406 71.890625 -33.445312 71.890625 -41.75 C 71.890625 -50.0625 69.8125 -56.320312 65.65625 -60.53125 C 61.507812 -64.738281 56.6875 -66.84375 51.1875 -66.84375 C 45.457031 -66.84375 40.546875 -64.738281 36.453125 -60.53125 C 32.359375 -56.320312 30.3125 -50.0625 30.3125 -41.75 C 30.3125 -33.445312 32.359375 -27.191406 36.453125 -22.984375 C 40.546875 -18.773438 45.398438 -16.671875 51.015625 -16.671875 Z M 51.015625 -16.671875 "/></g></g></g><g fill="#f59e0b" fill-opacity="1"><g transform="translate(874.725027, 280.773416)"><g><path d="M 51.859375 2.015625 C 43.328125 2.015625 35.804688 0.164062 29.296875 -3.53125 C 22.785156 -7.238281 17.648438 -12.398438 13.890625 -19.015625 C 10.128906 -25.640625 8.25 -33.21875 8.25 -41.75 C 8.25 -50.28125 10.128906 -57.859375 13.890625 -64.484375 C 17.648438 -71.109375 22.785156 -76.269531 29.296875 -79.96875 C 35.804688 -83.675781 43.328125 -85.53125 51.859375 -85.53125 C 62.523438 -85.53125 71.503906 -82.75 78.796875 -77.1875 C 86.097656 -71.632812 90.757812 -63.976562 92.78125 -54.21875 L 70.046875 -54.21875 C 68.921875 -58.257812 66.703125 -61.429688 63.390625 -63.734375 C 60.078125 -66.035156 56.175781 -67.1875 51.6875 -67.1875 C 45.738281 -67.1875 40.6875 -64.941406 36.53125 -60.453125 C 32.382812 -55.960938 30.3125 -49.726562 30.3125 -41.75 C 30.3125 -33.78125 32.382812 -27.550781 36.53125 -23.0625 C 40.6875 -18.570312 45.738281 -16.328125 51.6875 -16.328125 C 56.175781 -16.328125 60.078125 -17.445312 63.390625 -19.6875 C 66.703125 -21.9375 68.921875 -25.140625 70.046875 -29.296875 L 92.78125 -29.296875 C 90.757812 -19.867188 86.097656 -12.289062 78.796875 -6.5625 C 71.503906 -0.84375 62.523438 2.015625 51.859375 2.015625 Z M 51.859375 2.015625 "/></g></g></g><g fill="#f59e0b" fill-opacity="1"><g transform="translate(975.743038, 280.773416)"><g><path d="M 39.734375 2.015625 C 32.546875 2.015625 26.648438 0.863281 22.046875 -1.4375 C 17.453125 -3.738281 14.03125 -6.796875 11.78125 -10.609375 C 9.539062 -14.421875 8.421875 -18.628906 8.421875 -23.234375 C 8.421875 -30.984375 11.453125 -37.269531 17.515625 -42.09375 C 23.578125 -46.914062 32.664062 -49.328125 44.78125 -49.328125 L 66 -49.328125 L 66 -51.359375 C 66 -57.078125 64.367188 -61.285156 61.109375 -63.984375 C 57.859375 -66.679688 53.820312 -68.03125 49 -68.03125 C 44.625 -68.03125 40.804688 -66.988281 37.546875 -64.90625 C 34.296875 -62.832031 32.273438 -59.773438 31.484375 -55.734375 L 10.4375 -55.734375 C 11 -61.796875 13.046875 -67.070312 16.578125 -71.5625 C 20.117188 -76.050781 24.691406 -79.5 30.296875 -81.90625 C 35.910156 -84.320312 42.203125 -85.53125 49.171875 -85.53125 C 61.066406 -85.53125 70.4375 -82.554688 77.28125 -76.609375 C 84.132812 -70.660156 87.5625 -62.242188 87.5625 -51.359375 L 87.5625 0 L 69.203125 0 L 67.1875 -13.46875 C 64.71875 -8.976562 61.265625 -5.273438 56.828125 -2.359375 C 52.390625 0.554688 46.691406 2.015625 39.734375 2.015625 Z M 44.625 -14.8125 C 50.789062 -14.8125 55.585938 -16.832031 59.015625 -20.875 C 62.441406 -24.914062 64.601562 -29.910156 65.5 -35.859375 L 47.140625 -35.859375 C 41.421875 -35.859375 37.328125 -34.820312 34.859375 -32.75 C 32.390625 -30.675781 31.15625 -28.125 31.15625 -25.09375 C 31.15625 -21.832031 32.390625 -19.300781 34.859375 -17.5 C 37.328125 -15.707031 40.582031 -14.8125 44.625 -14.8125 Z M 44.625 -14.8125 "/></g></g></g><g fill="#f59e0b" fill-opacity="1"><g transform="translate(1072.888676, 280.773416)"><g><path d="M 10.9375 0 L 10.9375 -121.234375 L 32.5 -121.234375 L 32.5 0 Z M 10.9375 0 "/></g></g></g><path fill="#fbbf24" d="M 29.988281 103.925781 C 30.03125 103.871094 30.082031 103.84375 30.148438 103.835938 C 30.214844 103.832031 30.273438 103.851562 30.320312 103.898438 C 34.453125 107.996094 36.683594 113.023438 38.042969 118.714844 C 38.117188 119.007812 38.300781 119.363281 38.601562 119.777344 C 38.71875 119.945312 38.867188 120.078125 39.046875 120.175781 C 39.222656 120.277344 39.414062 120.335938 39.617188 120.347656 C 39.820312 120.363281 40.019531 120.335938 40.207031 120.261719 C 40.398438 120.191406 40.566406 120.082031 40.707031 119.933594 C 43.265625 117.289062 45.230469 115.082031 46.609375 113.316406 C 48.890625 110.402344 50.765625 108.109375 52.238281 106.4375 C 55.742188 102.453125 59.878906 97.222656 64.648438 90.742188 C 71.621094 81.261719 76.695312 69.960938 80.78125 58.417969 C 81.042969 57.683594 81.488281 56.957031 82.121094 56.238281 C 82.253906 56.085938 82.417969 55.984375 82.613281 55.9375 C 82.808594 55.886719 83.003906 55.898438 83.191406 55.964844 C 84.464844 56.441406 85.597656 57.179688 86.585938 58.1875 C 90.1875 61.847656 93.734375 66.316406 97.230469 71.59375 C 104.207031 82.15625 107.082031 94.027344 106.613281 106.601562 C 106.5625 108.058594 106.101562 110.355469 105.230469 113.484375 C 104.667969 115.519531 103.800781 117.695312 102.628906 120 C 100.109375 124.96875 96.585938 130.449219 92.0625 136.4375 C 89.582031 139.726562 87.164062 142.539062 84.804688 144.871094 C 82 147.65625 80.25 149.449219 79.554688 150.25 C 70.460938 160.785156 63.574219 171.464844 58.882812 182.296875 C 55.617188 189.832031 54.414062 198.113281 55.273438 207.148438 C 55.527344 209.765625 56.195312 213.082031 57.285156 217.097656 C 59.027344 223.507812 60.207031 227.179688 62.957031 232.546875 C 63.835938 234.265625 64.285156 236.324219 64.996094 237.75 C 65.050781 237.855469 65.054688 237.96875 65.007812 238.078125 C 64.964844 238.191406 64.886719 238.269531 64.773438 238.3125 C 63.457031 238.792969 61.914062 238.925781 60.46875 238.609375 C 57.136719 237.855469 51.527344 236.914062 47.070312 234.894531 C 42.089844 232.648438 37.171875 230.832031 32.984375 227.472656 C 27.558594 223.105469 22.179688 217.472656 16.839844 210.582031 C 9.347656 200.898438 5.761719 189.429688 5.375 176.753906 C 4.921875 161.953125 7.554688 148.296875 13.28125 135.78125 C 15.992188 129.867188 22.847656 118.652344 26.664062 109.445312 C 27.550781 107.304688 28.75 105.640625 29.988281 103.925781 Z M 29.988281 103.925781 " fill-opacity="1" fill-rule="nonzero"/><path fill="#fbbf24" d="M 120.921875 179.714844 C 120.183594 179.34375 119.546875 178.722656 119.003906 177.851562 C 114.484375 170.628906 109.359375 164.019531 103.632812 158.023438 C 101.894531 156.203125 100.515625 154.210938 99.5 152.054688 C 99.386719 151.8125 99.378906 151.574219 99.480469 151.328125 C 100.324219 149.273438 101.40625 147.296875 102.730469 145.402344 C 109.992188 134.980469 115.480469 122.839844 117.792969 110.347656 C 119.300781 102.175781 118.738281 95.382812 117.433594 85.511719 C 117.269531 84.300781 117.148438 82.636719 117.066406 80.523438 C 117.058594 80.324219 117.140625 80.171875 117.308594 80.066406 C 117.476562 79.960938 117.648438 79.957031 117.824219 80.050781 C 127.007812 85.089844 134.09375 91.773438 139.085938 100.097656 C 143.550781 107.558594 146.355469 115.574219 147.492188 124.140625 C 148.585938 132.351562 147.5625 140.75 144.421875 149.332031 C 142.277344 155.203125 139.414062 160.472656 135.832031 165.144531 C 131.601562 170.660156 126.839844 175.5 121.542969 179.65625 C 121.351562 179.808594 121.144531 179.828125 120.921875 179.714844 Z M 120.921875 179.714844 " fill-opacity="1" fill-rule="nonzero"/><path fill="#f97316" d="M 28.761719 246.875 C 29.890625 247.046875 31.230469 247.425781 32.78125 248.019531 C 41.464844 251.339844 50.386719 253.507812 59.722656 255.195312 C 68.871094 256.851562 77.933594 256.9375 86.917969 255.453125 C 91.832031 254.636719 95.632812 250.328125 99.203125 246.738281 C 105.316406 240.578125 110.871094 233.878906 115.867188 226.644531 C 116.878906 225.175781 118.691406 222.023438 121.308594 217.179688 C 123.082031 213.902344 126.144531 206.585938 130.496094 195.238281 C 131.121094 193.609375 132.058594 192 133.304688 190.398438 C 134.675781 188.65625 138.089844 184.898438 143.550781 179.132812 C 145.199219 177.394531 147.777344 174.101562 151.292969 169.253906 C 154.847656 164.34375 157.585938 158.675781 159.511719 152.242188 C 160.148438 150.121094 160.890625 147.578125 161.738281 144.613281 C 161.78125 144.472656 161.871094 144.390625 162.015625 144.367188 C 162.160156 144.34375 162.273438 144.394531 162.355469 144.511719 C 167.296875 151.539062 170.914062 158.808594 171.8125 167.878906 C 172.613281 175.871094 172.734375 183.492188 172.171875 190.75 C 171.640625 197.679688 170.265625 204.828125 168.054688 212.199219 C 165.53125 220.625 163.03125 227.472656 160.5625 232.742188 C 156.628906 241.121094 153.613281 246.96875 151.523438 250.289062 C 147.328125 256.945312 145.226562 260.28125 145.222656 260.289062 C 143.109375 264.035156 140.777344 266.894531 138.339844 270.832031 C 136.597656 273.640625 134.195312 276.628906 132.140625 279.582031 C 129.621094 283.207031 126.585938 286.277344 123.976562 289.839844 C 123.140625 290.988281 122.042969 292.351562 120.683594 293.933594 C 113.859375 301.871094 109.128906 307.25 106.492188 310.070312 C 102.71875 314.101562 96.980469 318.640625 91.640625 319.773438 C 85.808594 321.011719 77.828125 314.128906 74.105469 310.484375 C 67.121094 303.628906 60.628906 296.230469 54.636719 288.289062 C 49.558594 281.5625 43.417969 273.179688 36.207031 263.132812 C 32.320312 257.714844 30.261719 253.25 28.484375 247.191406 C 28.460938 247.105469 28.476562 247.027344 28.539062 246.957031 C 28.597656 246.886719 28.671875 246.859375 28.761719 246.875 Z M 28.761719 246.875 " fill-opacity="1" fill-rule="nonzero"/><g clip-path="url(#e5d0314b69)"><g clip-path="url(#94f829741f)"><g transform="matrix(1, 0, 0, 1, 64, 175)"><g clip-path="url(#831365e2bc)"><g clip-path="url(#725eddd2cc)"><g clip-path="url(#fff8f38f3e)"><path fill="#f59e0b" d="M 0.597656 0.660156 L 49.964844 0.660156 L 49.964844 50.027344 L 0.597656 50.027344 Z M 0.597656 0.660156 " fill-opacity="1" fill-rule="nonzero"/></g></g></g></g></g></g></svg>